<svg xmlns="http://www.w3.org/2000/svg" viewBox="0 0 333334 333334" shape-rendering="geometricPrecision" text-rendering="geometricPrecision" image-rendering="optimizeQuality" fill-rule="evenodd" clip-rule="evenodd"><path d="M81354 35851c-2956-5104-1215-11638 3889-14594s11638-1215 14594 3889l13716 23756c2956 5104 1215 11638-3889 14594s-11638 1215-14594-3889L81354 35851zm85313 35224c26396 0 50294 10700 67593 27999s27999 41197 27999 67593-10700 50294-27999 67593-41197 27999-67593 27999-50294-10700-67593-27999-27999-41197-27999-67593 10700-50294 27999-67593 41197-27999 67593-27999zm53151 42441c-13601-13602-32393-22015-53151-22015s-39550 8413-53151 22015c-13602 13601-22015 32393-22015 53151s8413 39550 22015 53151c13601 13602 32393 22015 53151 22015s39550-8413 53151-22015c13602-13601 22015-32393 22015-53151s-8413-39550-22015-53151zM158166 10706c0-5912 4793-10706 10706-10706 5912 0 10705 4793 10705 10706v27431c0 5912-4793 10705-10705 10705-5913 0-10706-4793-10706-10705V10706zm79149 16686c2933-5104 9448-6864 14552-3931s6864 9448 3931 14552l-13715 23756c-2933 5104-9448 6864-14552 3931s-6864-9448-3931-14552l13716-23756zm60168 53962c5104-2956 11638-1215 14594 3889s1215 11638-3889 14594l-23756 13716c-5104 2956-11638 1215-14594-3889s-1215-11638 3889-14594l23756-13716zm25145 76812c5912 0 10706 4793 10706 10706 0 5912-4793 10705-10706 10705h-27431c-5912 0-10705-4793-10705-10705 0-5913 4793-10706 10705-10706h27431zm-16686 79149c5104 2933 6864 9448 3931 14552s-9448 6864-14552 3931l-23756-13715c-5104-2933-6864-9448-3931-14552s9448-6864 14552-3931l23756 13716zm-53962 60168c2956 5104 1215 11638-3889 14594s-11638 1215-14594-3889l-13716-23756c-2956-5104-1215-11638 3889-14594s11638-1215 14594 3889l13716 23756zm-76812 25145c0 5912-4793 10706-10706 10706-5912 0-10705-4793-10705-10706v-27431c0-5912 4793-10705 10705-10705 5913 0 10706 4793 10706 10705v27431zm-79149-16686c-2933 5104-9448 6864-14552 3931s-6864-9448-3931-14552l13715-23756c2933-5104 9448-6864 14552-3931s6864 9448 3931 14552l-13716 23756zm-60168-53962c-5104 2956-11638 1215-14594-3889s-1215-11638 3889-14594l23756-13716c5104-2956 11638-1215 14594 3889s1215 11638-3889 14594l-23756 13716zm-25145-76812C4794 175168 0 170375 0 164462c0-5912 4793-10705 10706-10705h27431c5912 0 10705 4793 10705 10705 0 5913-4793 10706-10705 10706H10706zm16686-79149c-5104-2933-6864-9448-3931-14552s9448-6864 14552-3931l23756 13715c5104 2933 6864 9448 3931 14552s-9448 6864-14552 3931L27392 96018z" fill-rule="nonzero"/></svg>